HIERARCHY
ROOT Hips
{
	OFFSET 0.000000 71.427986 0.000000
	CHANNELS 6 Xposition Yposition Zposition Xrotation Yrotation Zrotation
	JOINT Pelvis
	{
		OFFSET 0.000000 0.000000 0.000000
		CHANNELS 3 Xrotation Yrotation Zrotation
		JOINT LeftUpLeg
		{
			OFFSET 6.797100 -2.508499 -1.318700
			CHANNELS 3 Xrotation Yrotation Zrotation
			JOINT LeftLeg
			{
				OFFSET 0.069008 -29.241863 0.690200
				CHANNELS 3 Xrotation Yrotation Zrotation
				JOINT LeftFoot
				{
					OFFSET -0.069008 -29.568123 -0.266800
					CHANNELS 3 Xrotation Yrotation Zrotation
					JOINT LeftToeBase
					{
						OFFSET 3.145500 -8.631000 16.059900
						CHANNELS 3 Xrotation Yrotation Zrotation
						End Site
						{
							OFFSET 0.000000 18.501587 0.000000
						}
					}
				}
			}
			JOINT Left_ShortSleeve
			{
				OFFSET 0.265923 -10.480953 1.153800
				CHANNELS 3 Xrotation Yrotation Zrotation
				End Site
				{
					OFFSET 1.725763 19.823879 0.000000
				}
			}
		}
		JOINT RightUpLeg
		{
			OFFSET -6.797100 -2.508499 -1.318700
			CHANNELS 3 Xrotation Yrotation Zrotation
			JOINT RightLeg
			{
				OFFSET -0.082453 -29.241932 0.688000
				CHANNELS 3 Xrotation Yrotation Zrotation
				JOINT RightFoot
				{
					OFFSET 0.082453 -29.568058 -0.264600
					CHANNELS 3 Xrotation Yrotation Zrotation
					JOINT RightToeBase
					{
						OFFSET -3.115300 -8.682800 16.113400
						CHANNELS 3 Xrotation Yrotation Zrotation
						End Site
						{
							OFFSET 0.000000 18.567114 0.000000
						}
					}
				}
			}
			JOINT Right_ShortSleeve
			{
				OFFSET -0.265923 -10.480953 1.153800
				CHANNELS 3 Xrotation Yrotation Zrotation
				End Site
				{
					OFFSET -1.725766 19.823910 0.000000
				}
			}
		}
	}
	JOINT Spine
	{
		OFFSET 0.000000 13.368103 0.470500
		CHANNELS 3 Xrotation Yrotation Zrotation
		JOINT Spine1
		{
			OFFSET 0.147000 13.837402 0.538800
			CHANNELS 3 Xrotation Yrotation Zrotation
			JOINT Spine2
			{
				OFFSET 0.168000 16.242897 -1.435500
				CHANNELS 3 Xrotation Yrotation Zrotation
				JOINT Neck
				{
					OFFSET 0.217200 18.631500 -1.679100
					CHANNELS 3 Xrotation Yrotation Zrotation
					JOINT Head
					{
						OFFSET 0.000000 6.599396 1.385900
						CHANNELS 3 Xrotation Yrotation Zrotation
						JOINT Hat
						{
							OFFSET -0.532200 27.220596 -10.096100
							CHANNELS 3 Xrotation Yrotation Zrotation
							End Site
							{
								OFFSET 0.000000 22.029861 0.000000
							}
						}
						JOINT HairD
						{
							OFFSET -10.777400 17.437393 -1.325900
							CHANNELS 3 Xrotation Yrotation Zrotation
							JOINT HairD1
							{
								OFFSET -3.290299 -11.051193 1.062200
								CHANNELS 3 Xrotation Yrotation Zrotation
								End Site
								{
									OFFSET 0.000000 11.579437 0.000000
								}
							}
						}
						JOINT HairB
						{
							OFFSET -10.777400 17.437393 1.467900
							CHANNELS 3 Xrotation Yrotation Zrotation
							JOINT HairB1
							{
								OFFSET -1.561200 -12.956299 3.590200
								CHANNELS 3 Xrotation Yrotation Zrotation
								End Site
								{
									OFFSET 0.000000 13.534866 0.000000
								}
							}
						}
						JOINT HairA
						{
							OFFSET 9.713100 17.437393 1.467900
							CHANNELS 3 Xrotation Yrotation Zrotation
							JOINT HairA1
							{
								OFFSET 1.561200 -12.956299 3.590200
								CHANNELS 3 Xrotation Yrotation Zrotation
								End Site
								{
									OFFSET 0.000000 13.534866 0.000000
								}
							}
						}
						JOINT HairC
						{
							OFFSET 9.713100 17.437393 -1.325900
							CHANNELS 3 Xrotation Yrotation Zrotation
							JOINT HairC1
							{
								OFFSET 3.290300 -11.051193 1.062200
								CHANNELS 3 Xrotation Yrotation Zrotation
								End Site
								{
									OFFSET 0.000000 11.579437 0.000000
								}
							}
						}
					}
				}
				JOINT LeftShoulder
				{
					OFFSET 5.101800 15.108002 -2.763700
					CHANNELS 3 Xrotation Yrotation Zrotation
					JOINT LeftArm
					{
						OFFSET 9.825497 2.506317 -1.597400
						CHANNELS 3 Xrotation Yrotation Zrotation
						JOINT LeftForeArm
						{
							OFFSET 21.966244 0.000000 0.000000
							CHANNELS 3 Xrotation Yrotation Zrotation
							JOINT LeftHand
							{
								OFFSET 33.879036 0.000000 0.000000
								CHANNELS 3 Xrotation Yrotation Zrotation
								JOINT LeftHandThumb1
								{
									OFFSET 6.715286 -2.359680 3.363841
									CHANNELS 3 Xrotation Yrotation Zrotation
									JOINT LeftHandThumb2
									{
										OFFSET 2.507072 -1.447464 1.447461
										CHANNELS 3 Xrotation Yrotation Zrotation
										JOINT LeftHandThumb3
										{
											OFFSET 2.898338 -1.673355 1.673357
											CHANNELS 3 Xrotation Yrotation Zrotation
											End Site
											{
												OFFSET -0.295959 3.727692 -0.131651
											}
										}
									}
								}
								JOINT LeftHandIndex1
								{
									OFFSET 14.190811 -0.254547 3.840278
									CHANNELS 3 Xrotation Yrotation Zrotation
									JOINT LeftHandIndex2
									{
										OFFSET 3.551727 0.000000 -0.000000
										CHANNELS 3 Xrotation Yrotation Zrotation
										JOINT LeftHandIndex3
										{
											OFFSET 2.894196 0.000000 0.000000
											CHANNELS 3 Xrotation Yrotation Zrotation
											End Site
											{
												OFFSET -1.000603 2.690872 0.366626
											}
										}
									}
								}
								JOINT LeftHandMiddle1
								{
									OFFSET 13.776489 0.000000 0.000000
									CHANNELS 3 Xrotation Yrotation Zrotation
									JOINT LeftHandMiddle2
									{
										OFFSET 3.438232 0.000000 0.000000
										CHANNELS 3 Xrotation Yrotation Zrotation
										JOINT LeftHandMiddle3
										{
											OFFSET 3.691551 0.000000 0.000000
											CHANNELS 3 Xrotation Yrotation Zrotation
											End Site
											{
												OFFSET -1.082298 3.499527 0.457670
											}
										}
									}
								}
								JOINT LeftHandRing1
								{
									OFFSET 13.966164 -0.268127 -3.067488
									CHANNELS 3 Xrotation Yrotation Zrotation
									JOINT LeftHandRing2
									{
										OFFSET 3.162567 0.000000 0.000000
										CHANNELS 3 Xrotation Yrotation Zrotation
										JOINT LeftHandRing3
										{
											OFFSET 3.324348 0.000000 0.000000
											CHANNELS 3 Xrotation Yrotation Zrotation
											End Site
											{
												OFFSET -0.861900 3.184998 0.405154
											}
										}
									}
								}
								JOINT LeftHandPinky1
								{
									OFFSET 13.131393 -0.168503 -5.746925
									CHANNELS 3 Xrotation Yrotation Zrotation
									JOINT LeftHandPinky2
									{
										OFFSET 2.849182 0.000000 0.000000
										CHANNELS 3 Xrotation Yrotation Zrotation
										JOINT LeftHandPinky3
										{
											OFFSET 2.805038 0.000000 0.000000
											CHANNELS 3 Xrotation Yrotation Zrotation
											End Site
											{
												OFFSET -0.882500 2.642609 0.325652
											}
										}
									}
								}
							}
							JOINT Left_Sleeve
							{
								OFFSET 6.592125 -0.646545 0.805568
								CHANNELS 3 Xrotation Yrotation Zrotation
								End Site
								{
									OFFSET -0.000179 20.275787 -0.000000
								}
							}
						}
					}
				}
				JOINT RightShoulder
				{
					OFFSET -5.731700 15.108002 -2.763700
					CHANNELS 3 Xrotation Yrotation Zrotation
					JOINT RightArm
					{
						OFFSET -9.825497 2.506317 -1.597400
						CHANNELS 3 Xrotation Yrotation Zrotation
						JOINT RightForeArm
						{
							OFFSET -21.966242 0.000000 0.000000
							CHANNELS 3 Xrotation Yrotation Zrotation
							JOINT RightHand
							{
								OFFSET -33.879032 0.000000 0.000000
								CHANNELS 3 Xrotation Yrotation Zrotation
								JOINT RightHandThumb1
								{
									OFFSET -6.715286 -2.359680 3.363841
									CHANNELS 3 Xrotation Yrotation Zrotation
									JOINT RightHandThumb2
									{
										OFFSET -2.507072 -1.447464 1.447461
										CHANNELS 3 Xrotation Yrotation Zrotation
										JOINT RightHandThumb3
										{
											OFFSET -2.898338 -1.673355 1.673357
											CHANNELS 3 Xrotation Yrotation Zrotation
											End Site
											{
												OFFSET 0.295959 3.727692 -0.131651
											}
										}
									}
								}
								JOINT RightHandIndex1
								{
									OFFSET -14.190811 -0.254547 3.840278
									CHANNELS 3 Xrotation Yrotation Zrotation
									JOINT RightHandIndex2
									{
										OFFSET -3.551727 0.000000 -0.000000
										CHANNELS 3 Xrotation Yrotation Zrotation
										JOINT RightHandIndex3
										{
											OFFSET -2.894196 0.000000 0.000000
											CHANNELS 3 Xrotation Yrotation Zrotation
											End Site
											{
												OFFSET 1.000603 2.690872 0.366626
											}
										}
									}
								}
								JOINT RightHandMiddle1
								{
									OFFSET -13.776489 0.000000 0.000000
									CHANNELS 3 Xrotation Yrotation Zrotation
									JOINT RightHandMiddle2
									{
										OFFSET -3.438232 0.000000 0.000000
										CHANNELS 3 Xrotation Yrotation Zrotation
										JOINT RightHandMiddle3
										{
											OFFSET -3.691551 0.000000 0.000000
											CHANNELS 3 Xrotation Yrotation Zrotation
											End Site
											{
												OFFSET 1.082298 3.499527 0.457670
											}
										}
									}
								}
								JOINT RightHandRing1
								{
									OFFSET -13.966164 -0.268127 -3.067488
									CHANNELS 3 Xrotation Yrotation Zrotation
									JOINT RightHandRing2
									{
										OFFSET -3.162567 0.000000 0.000000
										CHANNELS 3 Xrotation Yrotation Zrotation
										JOINT RightHandRing3
										{
											OFFSET -3.324348 0.000000 0.000000
											CHANNELS 3 Xrotation Yrotation Zrotation
											End Site
											{
												OFFSET 0.861900 3.184998 0.405154
											}
										}
									}
								}
								JOINT RightHandPinky1
								{
									OFFSET -13.131393 -0.168503 -5.746925
									CHANNELS 3 Xrotation Yrotation Zrotation
									JOINT RightHandPinky2
									{
										OFFSET -2.849182 0.000000 0.000000
										CHANNELS 3 Xrotation Yrotation Zrotation
										JOINT RightHandPinky3
										{
											OFFSET -2.805038 0.000000 0.000000
											CHANNELS 3 Xrotation Yrotation Zrotation
											End Site
											{
												OFFSET 0.882500 2.642609 0.325652
											}
										}
									}
								}
							}
							JOINT Right_Sleeve
							{
								OFFSET -6.592125 -0.646545 0.805568
								CHANNELS 3 Xrotation Yrotation Zrotation
								End Site
								{
									OFFSET 0.000179 20.275787 -0.000000
								}
							}
						}
					}
				}
				JOINT Bind_Right_JacketString
				{
					OFFSET -3.534800 11.969597 7.200700
					CHANNELS 3 Xrotation Yrotation Zrotation
					JOINT Bind_Right_JacketString1
					{
						OFFSET -0.319900 -6.102600 2.794100
						CHANNELS 3 Xrotation Yrotation Zrotation
						End Site
						{
							OFFSET 0.000000 6.719452 0.000000
						}
					}
				}
				JOINT Bind_Left_JacketString
				{
					OFFSET 2.904800 11.969597 7.200700
					CHANNELS 3 Xrotation Yrotation Zrotation
					JOINT Bind_Left_JacketString1
					{
						OFFSET 0.364800 -5.904503 3.186800
						CHANNELS 3 Xrotation Yrotation Zrotation
						End Site
						{
							OFFSET 0.000000 6.719513 0.000000
						}
					}
				}
				JOINT HairE
				{
					OFFSET 5.915200 17.612701 -11.592200
					CHANNELS 3 Xrotation Yrotation Zrotation
					JOINT HairE1
					{
						OFFSET 0.289200 -7.171898 -1.284500
						CHANNELS 3 Xrotation Yrotation Zrotation
						End Site
						{
							OFFSET 0.000000 7.291756 0.000000
						}
					}
				}
				JOINT HairF
				{
					OFFSET -0.864800 17.612701 -11.592200
					CHANNELS 3 Xrotation Yrotation Zrotation
					JOINT HairF1
					{
						OFFSET 0.000000 -14.087097 -2.127501
						CHANNELS 3 Xrotation Yrotation Zrotation
						End Site
						{
							OFFSET 0.000000 14.246841 0.000000
						}
					}
				}
				JOINT HairG
				{
					OFFSET -8.087700 17.612701 -11.592200
					CHANNELS 3 Xrotation Yrotation Zrotation
					JOINT HairG1
					{
						OFFSET -0.293600 -6.081398 -0.910100
						CHANNELS 3 Xrotation Yrotation Zrotation
						End Site
						{
							OFFSET 0.000000 6.156120 0.000000
						}
					}
				}
			}
		}
	}
	JOINT Pouch
	{
		OFFSET 0.000000 4.394501 10.847300
		CHANNELS 3 Xrotation Yrotation Zrotation
		End Site
		{
			OFFSET 0.000000 21.880577 0.000000
		}
	}
	JOINT Bag
	{
		OFFSET -13.229000 4.813004 -0.593300
		CHANNELS 3 Xrotation Yrotation Zrotation
		End Site
		{
			OFFSET 0.000000 21.880577 0.000000
		}
	}
	JOINT OccupyGuyFacialAnim_Joint
	{
		OFFSET 1.000000 -70.206398 -1.655000
		CHANNELS 3 Xrotation Yrotation Zrotation
		End Site
		{
			OFFSET 0.000000 21.880577 0.000000
		}
	}
}
MOTION
Frames: 4
Frame Time: 0.033333
-0.496934 60.469704 0.364146 15.500788 -53.415573 11.678742 0.000001 -0.000001 -0.000000 -65.819562 26.153187 42.771700 46.265034 -14.931844 4.318100 0.664210 0.552063 -9.994269 0.000000 -0.000002 0.000000 -0.000001 0.000001 0.000000 -33.703971 -20.428594 -35.288551 42.297842 -0.659212 -5.458463 -13.836911 -5.333266 30.444469 -0.000000 0.000000 -0.000000 -0.000002 -0.000001 0.000001 7.406299 3.464133 -3.063057 1.209171 1.420686 2.325051 0.209265 1.298826 1.049738 -1.852111 9.789357 -1.570088 -3.710346 23.673086 -4.987619 0.000001 0.000001 -0.000000 0.000001 0.000001 -0.000000 0.000001 0.000001 -0.000000 0.000001 0.000001 -0.000000 -0.000000 0.000001 -0.000000 0.000001 0.000001 -0.000000 -0.000000 0.000001 -0.000000 0.000001 0.000001 -0.000000 0.000001 0.000001 -0.000000 -2.416918 -9.914474 -4.105215 -4.668995 -14.995300 -46.826950 -96.668029 -58.172789 -94.771675 0.027009 -0.377067 -3.261916 4.766508 -0.870667 -14.442467 15.732316 12.674819 8.828577 0.000000 -0.000000 0.000001 -3.610937 -7.817586 -81.262661 0.005158 -4.388538 -67.459074 0.000001 0.000001 -0.000000 -5.483646 2.419557 -86.651031 -0.068373 -4.897296 -76.605523 0.000001 0.000001 -0.000004 -4.480795 3.914152 -90.412546 -1.097252 -0.675681 -62.310709 -0.000001 -0.000000 0.000003 -8.868629 8.263654 -85.753879 -0.047923 -0.066886 -74.105661 -0.000001 -0.000001 0.000001 0.000000 -0.000001 0.000001 -7.387816 -19.317447 2.804089 3.089063 2.300696 51.805079 -16.213932 73.879370 16.738500 -2.716635 27.655236 10.524557 24.918335 -21.323386 30.343040 9.041920 8.262102 -18.001814 0.000001 -0.000003 0.000003 -0.061205 -3.041079 61.434348 0.006464 4.395155 66.609200 -0.000002 0.000001 -0.000001 -1.235399 -0.119480 68.274270 -0.077296 4.902834 84.501905 0.000001 0.000000 -0.000003 0.883163 -4.613440 79.192949 -0.725287 1.137346 73.256545 -0.000001 -0.000000 -0.000001 -3.945254 0.116129 86.760997 -0.029801 0.060134 54.415154 -0.000000 0.000000 0.000002 0.000003 0.000001 -0.000002 0.000001 -0.000001 -0.000001 0.000000 0.000001 -0.000000 0.000001 -0.000001 -0.000000 0.000001 -0.000001 -0.000000 0.000001 -0.000001 -0.000001 0.000000 0.000001 -0.000000 0.000001 -0.000001 -0.000000 0.000001 -0.000001 -0.000000 0.000001 -0.000001 -0.000001 0.000000 0.000001 -0.000000 0.000001 -0.000001 -0.000000 0.000001 -0.000001 -0.000000 0.000001 -0.000001 -0.000000 
-0.205306 59.952278 1.222784 13.260950 -52.964999 11.864045 0.000001 0.000002 -0.000000 -64.689739 26.989829 41.103638 49.548931 -14.455725 4.190152 -1.500643 0.512458 -9.030766 0.000000 0.000000 0.000000 0.000001 -0.000001 -0.000000 -34.185787 -19.604567 -39.668202 43.626256 1.294845 -4.802756 -14.186305 -5.932015 30.823711 0.000000 0.000000 -0.000000 0.000001 -0.000000 -0.000002 7.616469 3.735248 -2.278019 1.866034 1.560691 2.509877 13.662059 -1.691594 1.502009 -9.804129 10.625975 -0.471894 -12.621174 24.282970 -4.868421 0.000000 -0.000000 0.000000 0.000000 -0.000000 0.000000 0.000000 -0.000000 0.000000 0.000000 -0.000000 -0.000000 0.000000 0.000002 -0.000001 0.000000 -0.000000 -0.000000 0.000000 0.000002 -0.000001 0.000000 -0.000000 0.000000 0.000000 -0.000000 0.000000 -2.073982 -7.572053 -5.111714 -7.901532 -9.990377 -42.238050 -107.784476 -60.195700 -106.589528 -0.551077 -7.036362 -6.989305 4.766507 -0.870666 -14.442467 15.732315 12.674816 8.828577 -0.000002 0.000001 -0.000000 -3.610939 -7.817587 -81.262661 0.005158 -4.388537 -67.459081 0.000001 0.000001 -0.000002 -5.483650 2.419557 -86.651031 -0.068373 -4.897296 -76.605517 -0.000000 0.000001 -0.000003 -4.480796 3.914153 -90.412546 -1.097251 -0.675682 -62.310709 -0.000001 0.000000 -0.000003 -8.868630 8.263655 -85.753879 -0.047923 -0.066886 -74.105661 0.000000 0.000001 0.000005 0.000000 0.000001 -0.000002 -7.220829 -19.895853 3.113262 1.941358 -1.338585 48.300390 9.989779 79.830172 -10.249983 -3.982886 19.487971 15.049717 24.918337 -21.323384 30.343037 9.041922 8.262102 -18.001817 0.000002 0.000001 -0.000002 -0.081738 -3.077193 61.429178 0.006463 4.395149 66.609200 -0.000004 0.000000 -0.000003 -1.235399 -0.119478 68.274270 -0.077297 4.902836 84.501905 -0.000003 0.000001 -0.000002 0.883164 -4.613441 79.192949 -0.725290 1.137338 73.256552 -0.000001 -0.000001 -0.000001 -3.945251 0.116115 86.760977 -0.029804 0.060135 54.415151 -0.000008 0.000002 0.000001 0.000000 0.000001 0.000002 -0.000000 -0.000003 0.000002 -0.000000 0.000000 0.000000 -0.000000 -0.000003 0.000000 -0.000000 -0.000003 0.000000 -0.000000 -0.000003 0.000002 -0.000000 0.000000 0.000001 -0.000000 -0.000003 0.000000 -0.000000 -0.000003 0.000000 -0.000000 -0.000003 0.000002 -0.000000 0.000000 0.000001 0.000001 0.000002 -0.000000 0.000001 0.000002 -0.000000 0.000001 0.000002 -0.000000 
-0.777277 59.634743 2.544775 5.717774 -52.701009 8.112443 -0.000000 -0.000001 -0.000000 -60.492253 29.477345 40.634387 52.860576 -16.376523 4.383853 -4.346043 0.765514 -7.977951 -0.000000 0.000002 0.000000 0.000003 -0.000000 0.000000 -30.321774 -20.301320 -44.581611 43.462215 3.917826 -4.381136 -14.859022 -6.772913 31.510350 -0.000000 0.000000 -0.000000 -0.000000 0.000000 -0.000001 8.534521 3.922457 -1.433161 2.665848 1.690491 3.276824 19.925649 -3.575832 2.184936 -8.354550 8.362762 -1.682756 -11.786494 22.806842 -6.892241 0.000000 -0.000002 -0.000000 0.000000 -0.000002 -0.000000 0.000000 -0.000002 -0.000000 0.000000 -0.000002 -0.000001 0.000000 0.000001 -0.000001 0.000000 -0.000002 -0.000001 0.000000 0.000001 -0.000001 0.000000 -0.000002 -0.000000 0.000000 -0.000002 -0.000000 -1.641755 -5.228991 -6.299045 -8.425179 -8.884006 -44.052538 -103.659595 -63.501792 -99.656217 -1.078567 -13.614679 -13.043527 4.766506 -0.870665 -14.442466 15.732313 12.674818 8.828578 0.000001 0.000001 -0.000001 -3.610935 -7.817587 -81.262667 0.005159 -4.388537 -67.459074 0.000002 0.000000 0.000005 -5.483647 2.419555 -86.651031 -0.068373 -4.897295 -76.605517 0.000001 0.000001 0.000004 -4.480797 3.914151 -90.412546 -1.097251 -0.675683 -62.310709 -0.000002 0.000003 -0.000003 -8.868629 8.263650 -85.753879 -0.047923 -0.066888 -74.105667 0.000002 -0.000000 0.000001 0.000001 0.000001 -0.000001 -6.918486 -21.293796 3.610753 1.103227 -3.845754 43.762009 49.530097 83.704241 -51.360960 -4.117551 9.498864 20.004279 24.918333 -21.323390 30.343037 9.041919 8.262101 -18.001816 0.000000 -0.000001 0.000003 -0.093527 -3.113619 61.423317 0.006465 4.395154 66.609200 -0.000001 -0.000001 -0.000003 -1.235398 -0.119479 68.274270 -0.077297 4.902833 84.501905 0.000006 -0.000002 0.000002 0.883162 -4.613439 79.192943 -0.725287 1.137337 73.256552 0.000002 -0.000001 0.000002 -3.945240 0.116123 86.760970 -0.029799 0.060135 54.415147 0.000003 -0.000000 0.000000 -0.000002 -0.000001 0.000002 -0.000000 0.000001 0.000000 0.000003 0.000001 0.000001 -0.000000 0.000001 0.000001 -0.000000 0.000001 0.000001 -0.000000 0.000001 0.000000 0.000003 0.000001 0.000001 -0.000000 0.000001 0.000001 -0.000000 0.000001 0.000001 -0.000000 0.000001 0.000000 0.000003 0.000001 0.000001 -0.000000 -0.000001 -0.000000 -0.000000 -0.000001 -0.000000 -0.000000 -0.000001 -0.000000 
-2.150388 59.464882 3.606381 -6.060697 -52.247126 0.595494 0.000000 0.000003 -0.000000 -53.299870 31.970961 40.644939 55.382442 -18.800021 6.014871 -6.897946 1.141160 -8.308534 -0.000000 0.000000 -0.000000 -0.000000 0.000000 0.000000 -22.608375 -22.032269 -47.639890 42.919095 5.785992 -5.182698 -16.257467 -8.082038 32.795635 0.000000 0.000000 -0.000000 0.000003 -0.000001 0.000000 10.201209 4.036982 -0.338423 4.333989 0.811393 5.306302 11.812643 -2.728839 2.814865 3.777820 2.465027 -5.791644 0.330564 18.873008 -11.556332 0.000001 -0.000000 -0.000000 0.000001 -0.000000 -0.000000 0.000001 -0.000000 0.000000 0.000001 -0.000000 0.000000 -0.000001 0.000003 -0.000001 0.000001 -0.000000 0.000000 -0.000001 0.000003 -0.000001 0.000001 -0.000000 -0.000000 0.000001 -0.000000 -0.000000 -1.118906 -2.916293 -7.417731 -4.024907 -9.377295 -53.107764 -79.638196 -66.150648 -71.340035 -3.001668 -15.902873 -19.926858 4.766503 -0.870665 -14.442466 15.732313 12.674820 8.828576 -0.000003 0.000002 0.000002 -3.610938 -7.817584 -81.262661 0.005158 -4.388538 -67.459074 0.000001 0.000000 0.000002 -5.483650 2.419557 -86.651031 -0.068372 -4.897295 -76.605523 0.000000 0.000001 0.000001 -4.480797 3.914152 -90.412546 -1.097252 -0.675684 -62.310716 -0.000001 -0.000001 -0.000003 -8.868629 8.263652 -85.753879 -0.047925 -0.066887 -74.105667 0.000001 -0.000001 0.000004 -0.000000 -0.000003 -0.000003 -7.289000 -23.321534 2.615250 1.820382 -5.642505 40.437124 74.567047 84.197081 -77.248640 -3.683412 -0.423421 24.427422 24.918333 -21.323391 30.343040 9.041921 8.262099 -18.001817 -0.000001 -0.000002 -0.000003 -0.103259 -3.146628 61.422805 0.006464 4.395157 66.609200 -0.000001 0.000001 -0.000001 -1.235403 -0.119480 68.274270 -0.077297 4.902833 84.501905 0.000003 0.000001 0.000001 0.883162 -4.613442 79.192943 -0.725289 1.137344 73.256545 -0.000002 -0.000002 -0.000000 -3.945255 0.116125 86.760990 -0.029798 0.060137 54.415154 0.000005 0.000000 -0.000001 -0.000003 0.000001 -0.000003 0.000001 0.000003 -0.000001 0.000001 -0.000002 -0.000000 0.000001 0.000003 -0.000002 0.000001 0.000003 -0.000002 0.000001 0.000003 -0.000001 0.000001 -0.000002 -0.000000 0.000001 0.000003 -0.000002 0.000001 0.000003 -0.000002 0.000001 0.000003 -0.000001 0.000001 -0.000002 -0.000000 0.000000 0.000003 -0.000000 0.000000 0.000003 -0.000000 0.000000 0.000003 -0.000000 
